<?xml version="1.0" standalone="no"?>
<!DOCTYPE svg PUBLIC "-//W3C//DTD SVG 1.1//EN" "http://www.w3.org/Graphics/SVG/1.1/DTD/svg11.dtd" >
<svg xmlns="http://www.w3.org/2000/svg" xmlns:xlink="http://www.w3.org/1999/xlink" version="1.1">
<metadata></metadata>
<defs>
<font id="sf_comic_script_extendedRg" horiz-adv-x="1302" >
<font-face units-per-em="2048" ascent="1638" descent="-410" />
<missing-glyph horiz-adv-x="678" />
<glyph horiz-adv-x="0" />
<glyph unicode="&#xd;" horiz-adv-x="1024" />
<glyph unicode=" "  horiz-adv-x="678" />
<glyph unicode="&#x09;" horiz-adv-x="678" />
<glyph unicode="&#xa0;" horiz-adv-x="678" />
<glyph unicode="!" horiz-adv-x="836" d="M346 326q14 55 69.5 95t120.5 45q65 7 100 -25.5t19 -87.5q-13 -54 -67 -93.5t-119 -46.5q-66 -5 -101 27.5t-22 85.5zM456 580q73 403 186 847l305 10q-131 -369 -266 -838z" />
<glyph unicode="&#x22;" horiz-adv-x="1213" d="M563 1085l21 70l85 74l-73 3l56 195l307 17l-44 -203zM964 1104l19 70l85 72l-73 5l56 195l308 17l-45 -203z" />
<glyph unicode="#" horiz-adv-x="1444" d="M510 816l29 167l156 10l37 140l-159 -10l43 157l159 12l39 150l198 4l-36 -139l142 9l43 159l192 -4l-39 -142l161 12l-67 -158l-137 -11l-39 -145l154 11l-27 -168l-169 -10l-33 -119l-193 1l29 106l-143 -10l-31 -116l-198 -3l28 105zM896 1005l142 10l37 144l-141 -10 z" />
<glyph unicode="$" horiz-adv-x="1509" d="M152 -154l41 354q155 20 215 30q131 23 220 55q56 20 82.5 40t37.5 62q8 35 -77 145q-118 156 -157 226q-75 147 -43 264q29 113 142.5 225t253.5 164q61 24 123 38q32 82 99 244l399 36q-31 -82 -89 -242q115 5 338 3l-140 -353l-549 -26q-34 -2 -69 -31t-44 -59 q-19 -69 84 -188q188 -224 235.5 -293t15.5 -187q-46 -176 -256 -295q-17 -99 -34 -159q-17 -70 -45 -135l-397 -34q23 53 47 144l9 34q-169 -38 -437 -60z" />
<glyph unicode="%" horiz-adv-x="1923" d="M338 -90l771 950q-150 -104 -312 -119q-174 -16 -266 79.5t-53 242.5q37 145 185 262t325 132q248 21 314 -155l-27 -12q60 -78 25 -194l340 418l249 -51l-739 -888q140 99 297 113q251 22 316 -154l-27 -12q56 -77 27 -187q-34 -134 -187.5 -240.5t-319.5 -121.5 q-172 -16 -264.5 79.5t-52.5 242.5q5 17 17 46l-347 -414zM732 1085q-15 -58 17.5 -99t102.5 -34q64 5 123 48.5t73 96.5q22 84 -55 111l34 16q-35 27 -97 22q-68 -5 -125 -53t-73 -108zM1193 317q-15 -58 18 -99t103 -35q63 6 121 49.5t74 96.5q20 84 -53 111l32 16 q-32 27 -95 22q-70 -5 -126.5 -53t-73.5 -108z" />
<glyph unicode="&#x26;" horiz-adv-x="1944" d="M316 309q59 223 394 387q-258 142 -196 369q95 358 798 420q145 13 512 20q140 2 212 -5l-150 -290q-217 29 -568 -2q-381 -34 -422 -187q-22 -84 172 -134q154 -40 289 -34l25 125l314 -44q-37 -210 -112 -625q48 7 94 19l-16 -258q-341 -84 -754 -119q-270 -24 -440 56 q-209 97 -152 302zM703 362q-24 -86 104 -118q101 -27 220 -17q48 3 200 31l85 363q-90 -3 -124 -7q-155 -13 -285 -68q-171 -72 -200 -184z" />
<glyph unicode="'" horiz-adv-x="749" d="M575 1070l19 70l85 72l-73 5l56 194l307 17l-46 -203z" />
<glyph unicode="(" horiz-adv-x="1108" d="M309 227q-27 201 49 493q70 258 209 471q138 207 384 434l384 -21q-454 -391 -570 -826q-74 -278 -46 -471q29 -208 179 -391l-413 -105q-150 206 -176 416z" />
<glyph unicode=")" horiz-adv-x="1106" d="M108 -154q261 221 406 444q135 207 208 485q116 433 -143 763l414 90q133 -193 161 -386q30 -198 -40 -455q-76 -292 -213 -507q-145 -225 -413 -469z" />
<glyph unicode="*" horiz-adv-x="1338" d="M362 870l106 258l361 -43l57 352l348 41l-159 -367l365 111l-1 -239l-396 -41l239 -218l-316 -193l-102 269l-262 -303l-238 114l375 304z" />
<glyph unicode="+" horiz-adv-x="1079" d="M300 625l26 216l290 17l46 215l256 9l-48 -210l294 17l-24 -217l-317 -17l-45 -210l-256 -8l45 201z" />
<glyph unicode="," horiz-adv-x="749" d="M307 73l19 70l85 72l-71 5l56 195l309 17l-48 -203z" />
<glyph unicode="-" d="M416 589l94 239q435 41 734 82l-75 -229q-363 -58 -753 -92z" />
<glyph unicode="." horiz-adv-x="799" d="M294 343q17 61 85 109t145 55t120.5 -31.5t26.5 -100.5q-17 -63 -83.5 -110.5t-143.5 -54.5t-122.5 31.5t-27.5 101.5z" />
<glyph unicode="/" horiz-adv-x="1103" d="M38 -159q199 403 469 871q307 534 572 932l351 -72q-281 -435 -585 -964q-268 -461 -444 -818z" />
<glyph unicode="0" horiz-adv-x="1792" d="M382 660q79 289 278 514q246 278 567 306q232 20 376.5 -70.5t164.5 -267.5l-73 -48q99 -157 36 -393q-72 -266 -308 -486q-257 -242 -568 -268q-331 -29 -449 215q-101 207 -24 498zM749 667q-119 -443 179 -418q163 14 289 152q106 114 143 258q41 150 -27 251l99 66 q-7 89 -83 138.5t-192 39.5q-287 -26 -408 -487z" />
<glyph unicode="1" horiz-adv-x="1359" d="M326 -101l72 273l193 17q30 135 230 898q-96 -46 -271 -99l-108 222q312 118 606 253l254 5q-44 -159 -66 -241q-140 -526 -250 -1012l209 19l-70 -265q-207 -10 -429 -30q-216 -19 -370 -40z" />
<glyph unicode="2" horiz-adv-x="1727" d="M237 -108q459 487 720 750q86 85 256 257q79 84 89 130q22 79 -42 120q-60 39 -157 30q-103 -8 -190 -63.5t-130 -140.5l-367 -26q82 206 300.5 354.5t466.5 171.5q249 20 399 -91q155 -119 102 -321q-27 -99 -104 -199q-47 -62 -169 -186q-286 -294 -419 -446 q85 5 230 17q166 14 321 31l-80 -280q-251 -29 -555 -56q-299 -26 -671 -52z" />
<glyph unicode="3" horiz-adv-x="1751" d="M317 348l372 39q-10 -80 56.5 -122.5t167.5 -34.5q113 11 218 82.5t130 161.5q55 212 -353 176q-32 -3 -82 -7q-63 -8 -80 -8l428 546l-647 -49l79 291l1244 94l-464 -572q169 -32 235.5 -142t23.5 -272q-60 -220 -299.5 -396t-510.5 -200q-251 -20 -407 91 q-165 121 -111 322z" />
<glyph unicode="4" horiz-adv-x="1888" d="M273 87l67 244q430 486 522 587q302 331 549 575l391 14q-218 -761 -228 -804q-24 -87 -55 -208l189 15l-73 -307l-195 -17l-56 -227l-408 -31l60 226q-167 -17 -365 -35q-203 -18 -398 -32zM833 435q92 0 160 7q63 5 127 17l128 463q-139 -163 -415 -487z" />
<glyph unicode="5" horiz-adv-x="1703" d="M270 345l372 39q-11 -80 58 -125q65 -42 165 -32q113 9 218 81.5t130 162.5q23 90 -42 141.5t-179 41.5q-180 -16 -294 -152l-312 75q94 191 239 462q138 261 228 407q185 -6 604 32q40 3 161 10q97 7 160 14l-143 -285l-558 -31q-102 -164 -138 -263q85 19 169 28 q273 24 408 -87q139 -115 81 -337q-59 -222 -299 -396.5t-511 -198.5q-251 -22 -406 88q-166 122 -111 325z" />
<glyph unicode="6" horiz-adv-x="1625" d="M253 382q25 87 182 289l633 793l398 34l-442 -551q294 26 449 -75q171 -111 107 -346q-58 -221 -296 -392.5t-504 -193.5q-265 -24 -423 98q-161 128 -104 344zM625 422q-24 -94 47 -147q67 -51 183 -41q111 10 210 79t123 160q22 87 -46.5 142.5t-177.5 46.5 q-106 -10 -211.5 -81t-127.5 -159z" />
<glyph unicode="7" horiz-adv-x="1533" d="M367 -67q111 221 365 630q145 234 184 299q111 169 207 295q-210 -10 -628 -27l78 290q777 36 1241 84q-271 -349 -595 -847q-275 -425 -437 -742z" />
<glyph unicode="8" horiz-adv-x="1765" d="M294 328q68 254 360 406q-161 101 -104 305q49 183 283 313q200 109 433 129q292 26 432 -134l-48 -33q137 -75 91 -244q-43 -164 -231 -270q180 -119 120 -344q-55 -207 -307 -355q-227 -133 -485 -156q-254 -22 -418 74q-179 109 -126 309zM676 389q-24 -85 56 -133 q70 -44 179.5 -34t204.5 68q106 62 128 150q24 87 -54 133q-72 43 -181 35q-111 -11 -203 -69q-108 -61 -130 -150zM896 991.5q-20 -76.5 38.5 -122t154.5 -38.5q89 9 162 50q85 46 102 114q24 85 -54 118l51 34q-56 51 -160 41q-96 -7 -180 -62q-94 -58 -114 -134.5z" />
<glyph unicode="9" horiz-adv-x="1649" d="M271 -104l599 570q-233 5 -360 125q-135 128 -83 322q58 219 309 384q239 159 506 183q361 30 495 -195l-35 -24q85 -106 39 -275q-33 -124 -196 -281l-842 -797zM800 945q-27 -98 43 -150q67 -51 188 -41q111 11 200 65q98 60 122 147q23 85 -46 130l53 36 q-65 66 -196 54q-116 -10 -224 -75q-116 -73 -140 -166z" />
<glyph unicode=":" horiz-adv-x="835" d="M311 345q17 61 85 109t145 54.5t120.5 -31.5t26.5 -100q-17 -63 -83.5 -111t-143.5 -54.5t-122 32t-28 101.5zM490 1012q17 61 86 110t146 54q75 7 118.5 -30.5t28.5 -99.5q-17 -63 -84.5 -111t-144.5 -54q-75 -7 -120.5 30.5t-29.5 100.5z" />
<glyph unicode=";" horiz-adv-x="746" d="M259 68l23 72l82 72l-70 3l54 196l311 17l-48 -203zM478 1012q17 61 86 109t146 55q75 7 118.5 -31.5t28.5 -100.5q-17 -63 -84.5 -110.5t-142.5 -54.5q-77 -7 -122 31.5t-30 101.5z" />
<glyph unicode="&#x3c;" horiz-adv-x="1022" d="M314 717l379 490l394 13l-377 -474l147 -437l-398 -34z" />
<glyph unicode="=" horiz-adv-x="1306" d="M352 427l111 225q455 44 733 82l-76 -224q-256 -25 -768 -83zM464 763l87 222q144 10 202 15q233 21 532 67l-72 -210q-242 -55 -522 -79q-106 -8 -227 -15z" />
<glyph unicode="&#x3e;" horiz-adv-x="1027" d="M292 261l394 483l-136 430l399 34l133 -425l-393 -488z" />
<glyph unicode="?" horiz-adv-x="1505" d="M408 333q14 53 68.5 93t120.5 47q69 5 102 -26.5t18 -88.5q-16 -54 -67 -93.5t-119 -44.5q-67 -7 -102 25.5t-21 87.5zM495 580q32 104 118 367q280 33 348 38q85 8 155 42q85 43 103 108q35 131 -262 106q-238 -22 -366 -53l15 218q130 29 326 46l106 9q247 22 387 -43 q171 -80 120 -271q-89 -335 -728 -391l-51 -160z" />
<glyph unicode="@" horiz-adv-x="1773" d="M394 736q65 240 312.5 421t541.5 207q353 30 491 -203l-37 -21q92 -126 44 -311q-62 -225 -306.5 -400.5t-519.5 -199.5q-280 -26 -434.5 123.5t-91.5 383.5zM608 754q-43 -160 62 -264t299 -87q185 17 354.5 138t209.5 273q39 145 -50 237l38 21q-98 135 -325 116 q-204 -19 -374 -142.5t-214 -291.5zM730 500q108 232 332 630l209 7q-30 -265 -8 -589l-160 -14v82q-74 7 -169 -2l-43 -99zM980 722q18 3 32 3q44 5 96 0q-2 87 10 263q-50 -87 -138 -266z" />
<glyph unicode="A" horiz-adv-x="1439" d="M20 -126q277 594 821 1570l524 19q-40 -368 -40 -794q0 -323 23 -679l-401 -94l5 264q-87 12 -184 12q-78 0 -162 -8q-38 -4 -85 -9l-113 -278zM642 425q42 5 77 8q71 6 139 6q55 0 108 -4q-2 164 -3 328q3 189 23 331q-121 -224 -344 -669z" />
<glyph unicode="B" horiz-adv-x="1618" d="M68 -70l127 268q42 -3 87 -3q92 271 309 943q-76 -12 -137 -27l22 280q106 24 224 34q61 5 185.5 19.5t187.5 19.5q133 12 242 11q495 0 495 -238q0 -36 -11 -76q-58 -219 -389 -403q212 -92 212 -256q0 -38 -11 -80q-56 -207 -322 -343q-226 -115 -494 -139 q-240 -21 -446 -21q-149 0 -281 11zM628 207q60 -1 103 -1q64 0 88 2q120 10 241 58q152 60 174 142q5 20 5 37q0 84 -114 122q-75 22 -173 22q-43 0 -90 -4q-21 -1 -125 -13zM739 1157l179 -75l-101 -275h6q495 43 549 248q4 14 4 27q0 104 -265 104q-74 0 -169 -8l-97 -9 q-21 -2 -106 -12z" />
<glyph unicode="C" horiz-adv-x="1526" d="M237 640q79 290 318 531q276 273 611 302q50 4 96 5q359 0 465 -271l-360 -156q-70 98 -227 98q-21 0 -44 -2q-190 -17 -333 -190q-113 -134 -159 -308q-27 -98 -27 -178q0 -53 12 -97q39 -138 187 -138q13 0 26 1q137 14 257 98.5t165 200.5l332 -55 q-107 -220 -335.5 -371t-493.5 -175q-35 -3 -69 -3q-273 0 -388 213q-65 122 -65 272q0 104 32 223z" />
<glyph unicode="D" horiz-adv-x="1555" d="M184 -113q43 198 96 396q116 434 280 860q-65 -10 -127 -27l21 278q113 26 224 36q89 8 172 8q335 0 573 -126q264 -141 264 -387q0 -68 -20 -145q-87 -321 -424.5 -575t-728.5 -289zM637 218q235 40 424.5 189t240.5 339q13 47 13 89q0 140 -146 227q-157 95 -416 97 l141 -94q-104 -215 -174 -473q-34 -133 -83 -374z" />
<glyph unicode="E" horiz-adv-x="1425" d="M213 -109q72 338 156 648q78 292 175 594l-158 -7l68 284q456 24 804 54q205 17 440 45l-97 -302q-186 -9 -362 -24q-147 -14 -302 -33q-17 -51 -36 -117q-25 -93 -41 -186q147 18 292 32q147 12 292 19l-82 -307q-143 -2 -292 -16q-145 -12 -293 -36q-33 -78 -53.5 -155 t-28.5 -152q169 22 334 36q166 15 328 22l-80 -307q-265 -12 -529 -36q-263 -22 -535 -56z" />
<glyph unicode="F" horiz-adv-x="1364" d="M213 -109q58 285 180 735q61 232 146 492l-162 2l77 290q462 25 828 58q244 20 416 41l-97 -302q-135 -6 -289 -19l-182 -17q-101 -9 -193 -21q-22 -56 -38 -114q-17 -72 -39 -189q147 18 292 32q147 12 292 19l-82 -307q-143 -2 -292 -16q-145 -12 -293 -36 q-50 -146 -94 -309q-43 -160 -70 -305z" />
<glyph unicode="G" horiz-adv-x="1558" d="M241 640q80 294 324 532q278 272 618 303q48 4 92 4q365 0 478 -271l-338 -222q-49 163 -258 163q-26 0 -53 -2q-191 -17 -334 -188q-116 -135 -162 -307q-26 -96 -26 -174q0 -59 15 -108q41 -131 192 -131q18 0 37 2q118 10 189 41q168 75 251 382q12 48 23 102l370 84 l-229 -853l-355 -31l36 130q-215 -145 -461 -168q-30 -3 -58 -3q-261 0 -350 229q-39 100 -39 223q0 120 38 263z" />
<glyph unicode="H" horiz-adv-x="1517" d="M79 -99q37 178 100 410q154 582 335 1104l394 15l-191 -613l457 -1l38 138q8 27 58 178l121 360l392 13q-146 -420 -245 -790q-96 -358 -162 -724l-395 -11l113 512l-468 6q-46 -136 -83 -274q-41 -152 -69 -311z" />
<glyph unicode="I" horiz-adv-x="1103" d="M73 -131l58 271l215 29q47 246 110 488q61 225 153 492q-70 -6 -208 -19l84 281q90 11 216 21q253 22 508 22q79 0 158 -2l-87 -281q-253 0 -505 -14l254 -77q-41 -131 -82 -281q-71 -268 -133 -589l210 8l-58 -271q-218 -5 -444 -24q-222 -20 -449 -54z" />
<glyph unicode="J" horiz-adv-x="1374" d="M34 -38l311 265q41 -26 116 -26q18 0 39 2q167 15 220 208l176 657q7 23 7 39q0 33 -30 33h-6q-51 -5 -174 -15l101 300q293 41 547 63q185 17 299 17q28 0 51 -1l-104 -299q-53 -7 -85 -10q-55 -4 -168.5 -11.5t-172.5 -12.5l-52 -5l231 -70q-14 -38 -26 -84 q-25 -94 -68 -283.5t-68 -284.5q-77 -289 -401 -463q-186 -100 -367 -116q-40 -3 -77 -3q-198 0 -299 100z" />
<glyph unicode="K" horiz-adv-x="1452" d="M92 -121q68 370 169 752q109 405 248 784l390 13q-29 -92 -63 -215q-15 -59 -49 -194q-33 -125 -50 -195q435 429 632 666l351 -55q-174 -189 -421 -447q-96 -99 -142 -143q-80 -77 -152 -133q273 -331 330 -714l-430 -59q-31 356 -267 522q-15 -60 -51.5 -183 t-54.5 -184q-25 -96 -40 -179z" />
<glyph unicode="L" horiz-adv-x="1058" d="M92 -121q74 397 173 771q105 388 242 765l394 13q-148 -433 -244 -790q-49 -191 -97 -402q128 1 257 11q130 12 263 35l-114 -326q-167 -24 -411 -46l-125 -11q-177 -15 -338 -20z" />
<glyph unicode="M" horiz-adv-x="2000" d="M150 -116q80 370 181 744q67 249 142 500l-62 108l406 206l333 -787l712 878l394 -77q-85 -103 -124 -191q-11 -31 -42.5 -140.5l-157.5 -547.5q-99 -338 -155 -550l-401 -36q12 48 29 111q73 275 165 555l-556 -618l-294 562q-25 -80 -49 -166q-91 -341 -123 -515z" />
<glyph unicode="N" horiz-adv-x="1575" d="M147 -116q82 370 181 744q66 251 141 500l-61 108l406 206l382 -797q29 161 74 326q71 266 172 490l350 -97q-99 -291 -174 -567q-104 -387 -166 -777l-377 -54l-358 635q-33 -113 -50 -176q-65 -239 -123 -505z" />
<glyph unicode="O" horiz-adv-x="1597" d="M237 640q80 294 324 532q275 272 618 303q48 4 93 4q365 0 477 -271l-129 -85q80 -108 79 -250q0 -77 -23 -165q-73 -276 -329 -501q-275 -241 -601 -270q-36 -3 -70 -3q-276 0 -400 209q-70 124 -70 278q0 103 31 219zM599 372q46 -133 202 -132q17 0 35 1 q168 15 307 158q120 125 159 272q14 53 14 100q0 86 -48 151l137 90q-59 136 -255 136q-28 0 -58 -3q-187 -15 -327 -184q-113 -133 -159 -304q-25 -91 -25 -167q0 -65 18 -118z" />
<glyph unicode="P" horiz-adv-x="1534" d="M159 -114q123 372 409 1256q-65 -9 -133 -26l19 278q114 26 224 36q257 23 447 23q168 0 283 -18q360 -55 360 -272q0 -39 -12 -84q-13 -45 -31 -81q-138 -271 -440 -443q-275 -156 -626 -198l-138 -441zM748 637q182 17 344 99q197 99 234 237q7 24 7 45q0 92 -128 127 q-75 19 -181 19q-55 0 -118 -5q-46 -5 -158 -7l150 -65z" />
<glyph unicode="Q" horiz-adv-x="1597" d="M227 638q80 296 324 534q277 272 618 301q36 3 70 3q168 0 295 -78q137 -84 203 -239l-76 -51q47 -78 47 -181q0 -70 -22 -152q-94 -355 -387 -601q78 -73 196 -95l-362 -227q-89 47 -143 139q-125 -44 -254 -56q-36 -3 -70 -3q-277 0 -398 211q-71 125 -71 280 q0 101 30 215zM587 370q46 -136 196 -136q16 0 33 2q34 3 70 13q-16 75 -36 193l293 189q2 -102 21 -194q107 138 155 312q10 38 10 71q0 59 -32 103l85 58q-80 166 -261 166q-19 0 -39 -2q-188 -17 -331 -189q-114 -137 -160 -306q-24 -86 -24 -158q0 -67 20 -122z" />
<glyph unicode="R" horiz-adv-x="1616" d="M167 -97q244 737 429 1239q-89 -9 -171 -28l19 280q129 26 327 45q248 22 430 22q159 0 267 -17q336 -53 337 -260q0 -40 -13 -85q-12 -43 -29 -80q-186 -376 -678 -548q367 -150 413 -466l-428 -58q-36 154 -130 236q-73 68 -259 141q-87 -256 -125 -387zM765 1152 l162 -79l-142 -416q184 17 348 101q193 97 231 235q6 22 6 41q0 135 -288 135q-64 0 -143 -7q-69 -7 -174 -10z" />
<glyph unicode="S" horiz-adv-x="1104" d="M73 -155l41 353q203 27 331 70q103 36 120 104q4 14 4 34q0 59 -35 166q-46 106 -89 215q-37 96 -37 169q0 34 8 63q29 113 142.5 223t253.5 166q111 43 287 58q86 8 173 8q68 0 138 -5l-113 -329l-304 -34q-34 -3 -69 -32.5t-43 -58.5q-1 -4 -1 -8q0 -36 45 -149 q67 -172 87 -252q25 -94 26 -171q0 -56 -14 -104q-15 -63 -51 -116q-109 -164 -412 -266q-232 -80 -488 -104z" />
<glyph unicode="T" horiz-adv-x="1340" d="M340 1101l100 309l1215 54l-100 -309l-644 -29l219 -75q-120 -356 -202 -662q-64 -246 -116 -481h-387q53 293 130 580q85 319 199 632z" />
<glyph unicode="U" horiz-adv-x="1574" d="M241 597l218 814l369 16l-219 -813q-18 -68 -18 -128q0 -68 23 -126q46 -121 181 -121q16 0 33 2q158 13 273 138q94 102 131 242l222 831l389 17l-217 -807q-70 -263 -312 -473q-258 -225 -568 -252q-35 -3 -68 -3q-265 0 -388 194q-76 122 -76 276q0 91 27 193z" />
<glyph unicode="V" horiz-adv-x="1434" d="M372 -73q-3 92 -3 202q0 208 12 477q17 461 56 802l374 19q-51 -448 -51 -770q0 -130 8 -239q251 553 572 1033l408 18q-166 -227 -413 -660q-306 -533 -456 -860q-73 4 -146 4q-109 0 -216 -9q-68 -5 -145 -17z" />
<glyph unicode="W" horiz-adv-x="2065" d="M382 -73q-3 93 -3 202q0 208 12 477q17 461 56 804l377 17q-52 -447 -52 -770q0 -128 8 -237q87 191 169 379q102 220 200 379q-1 30 -1 59q0 73 7 145l398 -13q-25 -216 -25 -458q0 -205 18 -428q31 87 212 529q63 164 206 488l379 16q-297 -611 -655 -1465 q-101 0 -195 -8q-157 -14 -319 -52q-13 176 -24 530q-100 -192 -286 -574q-69 4 -139 4q-105 0 -211 -9q-70 -5 -132 -15z" />
<glyph unicode="X" horiz-adv-x="1481" d="M77 7q355 430 565 650q-147 411 -215 650l447 140q8 -42 124 -411q198 198 497 457l241 -133q-296 -246 -663 -609q149 -432 303 -693l-425 -104q-75 152 -198 447q-219 -206 -429 -502z" />
<glyph unicode="Y" horiz-adv-x="1406" d="M411 1374l405 68q12 -142 25 -281q17 -168 69 -267q225 372 433 570l377 -24q-269 -308 -617 -786q-48 -67 -128 -198q-33 -65 -64 -180q-46 -174 -78 -336l-393 -13q36 182 79 339q41 154 70 236q-65 148 -118 428q-49 263 -60 444z" />
<glyph unicode="Z" horiz-adv-x="1417" d="M55 -106q172 248 477 640q-157 -17 -261 -32l81 307q218 27 433 48q131 162 244 297q-259 -19 -645 -34l159 298q380 17 747 50q212 19 417 41q-265 -292 -535 -622q69 4 178 9l-80 -307q-142 -4 -348 -19q-149 -191 -268 -360h6q408 36 722 89l-181 -309 q-264 -38 -523 -62q-284 -24 -623 -34z" />
<glyph unicode="[" horiz-adv-x="1379" d="M258 -208q114 563 256 1089q92 344 211 725q251 -2 494 20q136 12 305 35l-140 -342l-362 -22l-111 -408q-111 -408 -184 -725l387 29l-81 -336z" />
<glyph unicode="\" horiz-adv-x="1103" d="M459 1487l408 138q60 -371 90 -872q23 -444 11 -832l-407 -117q9 341 -15 778q-29 500 -87 905z" />
<glyph unicode="]" horiz-adv-x="1362" d="M193 -217l95 338l390 38q107 355 175 614l75 273q24 92 65 249l-370 -42l109 341q149 5 256 14q246 22 487 63q-81 -360 -178 -722q-147 -548 -329 -1096z" />
<glyph unicode="^" horiz-adv-x="1053" d="M468 1229l312 206l229 24l201 -176l-247 -25l-96 65l-142 -81z" />
<glyph unicode="_" horiz-adv-x="1664" d="M249 -150l46 176l1064 93l-47 -175z" />
<glyph unicode="`" horiz-adv-x="802" d="M614 1560l46 176l504 -120l-38 -63z" />
<glyph unicode="a" horiz-adv-x="1172" d="M101 181q223 478 658 1256l420 14q-32 -296 -32 -643q0 -254 17 -535l-321 -27l4 164q-69 9 -144 9q-62 0 -130 -6q-30 -2 -70 -7l-85 -198zM601 621q34 5 61 7q57 5 111 5q42 0 84 -3q0 129 -2 261q3 152 21 264q-98 -177 -275 -534z" />
<glyph unicode="b" horiz-adv-x="1326" d="M143 218l99 214q38 -4 72 -4q44 132 249 768q-61 -10 -107 -20l18 223q89 21 178 28q48 5 149.5 16t149.5 16q107 9 194 9q394 0 395 -190q0 -28 -9 -61q-46 -174 -311 -324q167 -73 167 -211q0 -34 -10 -71q-44 -166 -257 -275q-180 -90 -395 -109q-195 -17 -363 -17 q-116 0 -219 8zM591 437q117 0 153 3q92 9 193 53q123 53 142 120q4 16 4 31q0 66 -93 95q-61 20 -144 20q-31 0 -64 -3q-23 -3 -99 -10zM746 932h3q169 15 258 44q154 50 183 156q3 11 3 20q0 83 -212 83q-59 0 -134 -6l-79 -7q-31 -3 -31 -12q0 -17 91 -56z" />
<glyph unicode="c" horiz-adv-x="1248" d="M278 794q63 235 261 426q219 217 494 241q40 4 77 3q289 0 380 -215l-271 -177q-36 128 -204 128q-22 0 -46 -2q-153 -14 -268 -147q-90 -106 -128 -244q-19 -73 -19 -135q0 -47 11 -88q34 -112 150 -112q11 0 24 1q96 8 183 62t134 132l267 -42q-98 -166 -272 -272 t-375 -123q-28 -2 -55 -2q-221 0 -314 171q-53 98 -53 220q0 82 24 175z" />
<glyph unicode="d" horiz-adv-x="1270" d="M237 193q34 157 77 316q90 336 224 687q-58 -10 -103 -22l19 224q87 20 179 27q73 6 140 6q267 0 456 -100q210 -113 210 -309q0 -55 -16 -116q-70 -257 -340.5 -460.5t-582.5 -230.5zM599 457q189 31 340.5 149.5t193.5 272.5q9 35 9 67q0 115 -115 186q-128 78 -334 78 l111 -75q-77 -164 -132 -367q-27 -101 -73 -311z" />
<glyph unicode="e" horiz-adv-x="1171" d="M259 195q55 261 127 524q65 242 138 469l-126 -5l54 227q364 18 649 42q169 16 345 36l-79 -240q-138 -7 -292 -21q-130 -12 -237 -24q-15 -49 -31 -104q-19 -68 -30 -140q110 16 233 26q125 10 234 15l-66 -246q-120 -1 -232.5 -11.5t-235.5 -29.5q-29 -64 -44 -124 q-17 -60 -21 -121q125 15 266 29q139 12 263 17l-65 -246q-220 -10 -423 -27q-201 -19 -427 -46z" />
<glyph unicode="f" horiz-adv-x="1111" d="M259 195q45 221 144 588q53 198 118 393l-130 2l61 232q412 22 666 44q157 14 328 34l-79 -240q-176 -9 -294 -19q-100 -10 -235 -26q-14 -41 -31 -99q-17 -71 -30 -145q110 16 233 26q125 10 234 15l-66 -246q-120 -1 -232.5 -11.5t-235.5 -29.5q-44 -122 -76.5 -247 t-54.5 -244z" />
<glyph unicode="g" horiz-adv-x="1275" d="M280 794q63 235 261 426q220 217 493 241q40 4 77 4q290 0 381 -216l-272 -177q-39 128 -204 128q-21 0 -45 -2q-152 -12 -266 -148q-94 -110 -132 -246q-20 -77 -20 -139q0 -48 12 -86q33 -107 158 -107q12 0 26 1q94 8 150 34q132 60 207 336l293 60l-168 -623 l-284 -26l29 104q-174 -116 -368 -133q-25 -2 -48 -2q-212 0 -278 181q-32 82 -32 181q0 96 30 209z" />
<glyph unicode="h" horiz-adv-x="1251" d="M159 203q36 176 80 340q116 432 266 872l316 10l-154 -488l369 -2l29 111q5 16 48 142l94 288l314 11q-118 -342 -197 -637q-75 -282 -129 -574l-314 -10l90 410l-374 5q-39 -109 -68 -215q-32 -121 -58 -253z" />
<glyph unicode="i" horiz-adv-x="534" d="M166 186q58 321 136 611q82 306 195 618l314 10q-120 -346 -198 -642q-75 -281 -130 -570z" />
<glyph unicode="j" horiz-adv-x="894" d="M90 276l234 200q35 -20 95 -20q14 0 30 1q124 11 164 157q18 74 61 220t62 219q52 196 112 375q164 26 186 28q30 2 66 2t79 -2q-66 -190 -119 -388q-19 -71 -55 -214.5t-54 -215.5q-60 -216 -301 -346q-143 -77 -280 -89q-28 -2 -53 -2q-149 0 -227 75z" />
<glyph unicode="k" horiz-adv-x="1195" d="M171 186q58 321 136 611q82 306 195 618l314 10q-31 -89 -53 -176q-14 -49 -39 -155q-24 -97 -41 -152q348 338 507 533l281 -45q-135 -150 -336 -358q-72 -77 -234 -220q217 -265 280 -506l-343 -102q-70 292 -232 406q-12 -48 -41 -146t-41 -146q-24 -87 -36 -145z" />
<glyph unicode="l" horiz-adv-x="870" d="M169 186q60 323 136 613q81 305 195 616l314 10q-118 -348 -194 -633q-41 -152 -79 -321q106 0 207 9q102 8 209 27l-90 -260q-166 -25 -352 -40q-187 -18 -346 -21z" />
<glyph unicode="m" horiz-adv-x="1633" d="M212 189q61 289 145 596q56 212 114 399l-51 86l326 165l266 -629l568 703l314 -62q-68 -82 -97 -153q-12 -29 -36 -111q-182 -637 -249 -879l-319 -28q17 76 34 144q39 141 121 387l-443 -493l-236 449q-15 -44 -29 -97l-44 -164q-41 -159 -67 -284z" />
<glyph unicode="n" horiz-adv-x="1294" d="M208 189q62 289 145 596q57 212 115 398l-52 87l326 165l306 -638q25 135 60 266q58 210 136 388l280 -79q-82 -239 -138 -452q-82 -306 -132 -621l-303 -45l-285 509q-31 -103 -41 -143q-48 -181 -99 -403z" />
<glyph unicode="o" horiz-adv-x="1307" d="M278 794q65 237 261 426q219 217 494 241q40 4 77 3q289 0 380 -215l-104 -70q63 -85 63 -198q0 -62 -19 -133q-61 -223 -264 -401q-221 -193 -482 -217q-28 -2 -53 -2q-224 0 -319 170q-57 101 -57 226q0 80 23 170zM568 579q36 -106 160 -106q14 0 28 1q135 12 246 125 q97 102 130 220q11 42 11 78q0 70 -40 122l109 72q-47 109 -204 109q-22 0 -45 -2q-149 -14 -262 -148q-92 -106 -128 -243q-20 -73 -19 -133q-1 -52 14 -95z" />
<glyph unicode="p" horiz-adv-x="1249" d="M218 191q89 268 328 1005q-51 -6 -109 -22l19 224q88 20 179 29q202 17 353 17q136 0 229 -14q288 -43 288 -216q0 -33 -10 -69q-8 -37 -24 -63q-107 -217 -351 -355q-222 -125 -502 -159l-111 -353zM689 790q146 14 279 80q155 79 184 190q5 20 5 37q0 61 -65 89 q-63 26 -191 26h-10q-101 -5 -202 -9l122 -51z" />
<glyph unicode="q" horiz-adv-x="1304" d="M268 792q63 235 261 428q220 215 493 239q33 3 65 3q284 0 389 -254l-61 -39q38 -61 38 -144q0 -57 -18 -124q-76 -283 -310 -481q65 -58 158 -77l-288 -181q-72 41 -118 113q-99 -36 -203 -45q-29 -2 -56 -2q-222 0 -316 168q-57 102 -57 227q0 80 23 169zM558 577 q37 -107 158 -107q12 0 25 1q29 2 56 10q-19 72 -31 156l236 150q0 -82 17 -156q85 110 118 229q10 42 10 76q0 51 -22 85l68 44q-63 133 -208 133q-16 0 -33 -2q-148 -12 -264 -150q-91 -109 -128 -246q-18 -66 -18 -124q0 -53 16 -99z" />
<glyph unicode="r" horiz-adv-x="1287" d="M189 188q98 338 345 1005q-46 -5 -104 -19l19 224q89 20 179 27q210 18 363 19q130 0 219 -14q288 -45 288 -217q0 -32 -10 -68q-41 -159 -206 -300q-157 -133 -359 -203q226 -92 331 -345l-331 -87q-61 253 -312 358q-75 -220 -111 -353zM683 790q145 14 278 80 q155 79 184 190q5 20 5 37q0 93 -155 110q-14 2 -57 2q-78 0 -254 -6l120 -51z" />
<glyph unicode="s" horiz-adv-x="910" d="M152 184l36 284q165 20 263 54q81 28 95 82q2 8 2 20q0 42 -29 127q-38 82 -75 165q-30 75 -30 132q0 25 6 46q22 90 114 179t203 133q91 36 232 48q68 6 137 6l109 -4l-90 -265l-246 -25q-26 -4 -53 -28q-34 -31 -35 -50q0 -26 50 -144q60 -150 65 -171q18 -62 18 -116 q0 -38 -9 -72q-16 -66 -41 -104q-84 -131 -328 -215q-191 -63 -394 -82z" />
<glyph unicode="t" horiz-adv-x="1091" d="M358 1162l82 248l970 42l-81 -245l-329 -14q-75 -248 -138 -480q-63 -233 -118 -477l-319 -28q56 272 126 531q55 208 128 435z" />
<glyph unicode="u" horiz-adv-x="1292" d="M285 759l174 652l295 14l-174 -652q-15 -56 -15 -105q0 -53 17 -98q40 -97 148 -97q11 0 23 1q126 11 215 111q70 81 107 195l196 666l296 11l-174 -646q-57 -209 -251 -379q-207 -179 -454 -200q-29 -2 -55 -2q-212 0 -309 154q-61 98 -61 220q0 73 22 155z" />
<glyph unicode="v" horiz-adv-x="1169" d="M386 222q-4 82 -4 183q0 157 9 361q17 374 46 642l302 15q-44 -370 -44 -630q0 -96 6 -177q207 446 460 824l326 16q-135 -188 -332 -528q-244 -418 -367 -687q-52 3 -105 3q-87 0 -178 -8q-65 -6 -119 -14z" />
<glyph unicode="w" horiz-adv-x="1681" d="M394 224q-2 70 -2 153q0 167 9 389q19 376 46 644l302 13q-43 -364 -43 -622q0 -99 6 -183q68 152 138 304q80 175 157 302v30q0 67 7 134l317 -11q-20 -171 -19 -363q0 -166 14 -347q31 81 169 425q50 130 166 389l303 14q-242 -502 -525 -1172q-79 0 -156 -7 q-128 -11 -254 -41q-12 140 -17 423q-82 -152 -232 -459q-58 3 -116 3q-80 0 -159 -6q-56 -6 -111 -12z" />
<glyph unicode="x" horiz-adv-x="1217" d="M152 287q280 339 454 522q-125 340 -174 519l358 112q5 -32 97 -329q159 155 400 365l193 -106q-232 -192 -529 -488q85 -247 254 -537l-353 -99q-64 128 -159 358q-169 -160 -343 -403z" />
<glyph unicode="y" horiz-adv-x="1142" d="M413 1381l324 54q9 -117 17 -235q16 -138 55 -220q196 326 350 472l302 -18q-203 -236 -493 -630q-38 -51 -104 -157q-24 -48 -50 -144q-41 -153 -68 -283l-314 -10q32 148 65 273q25 101 53 183q-40 97 -89 360q-41 223 -48 355z" />
<glyph unicode="z" horiz-adv-x="1166" d="M135 196q148 212 382 514q-121 -14 -210 -27l65 245q186 24 348 40q116 145 195 237q-226 -15 -516 -27l127 239q338 15 602 39q150 13 328 34q-200 -220 -427 -498q67 3 143 6l-66 -245q-121 -4 -277 -14q-122 -160 -215 -290l33 3q300 26 549 69l-143 -248 q-208 -29 -408 -48q-234 -20 -510 -29z" />
<glyph unicode="{" horiz-adv-x="1439" d="M292 534l90 381l195 17q43 155 90 333q38 138 172 239.5t262 113.5q24 2 464 31l-131 -326l-362 -21q-29 -90 -68 -237q-147 -553 -227 -898l385 31l-83 -336l-441 -29q-152 -10 -230.5 54t-52.5 195q14 87 63 268l53 198z" />
<glyph unicode="|" horiz-adv-x="1039" d="M266 -208q74 397 200 870q152 562 292 946l392 13q-148 -437 -293 -976q-127 -473 -193 -817z" />
<glyph unicode="}" horiz-adv-x="1446" d="M227 -203l89 324l406 22q27 93 65 238q148 549 230 897l-387 -30l83 336l442 29q149 8 227.5 -55t57.5 -194q-15 -86 -97 -388v-8l176 13l-92 -380l-193 -17q-43 -156 -111 -403q-31 -125 -152 -230q-130 -110 -280 -123q-31 -4 -464 -31z" />
<glyph unicode="~" horiz-adv-x="1440" d="M561 1116l57 210q150 111 316 126q76 7 155.5 -34.5t152.5 -35.5q156 12 296 111l-57 -211q-141 -98 -298 -111q-62 -5 -142 36.5t-148 34.5q-173 -13 -332 -126z" />
<glyph unicode="&#xa1;" horiz-adv-x="828" d="M218 -150q127 442 270 855l225 19q-116 -468 -179 -830zM514 949q13 55 68 95t121 45q65 7 99 -25.5t21 -87.5q-14 -54 -68 -93.5t-118 -46.5q-67 -5 -103 26.5t-20 86.5z" />
<glyph unicode="&#xa2;" horiz-adv-x="1406" d="M369 802q53 195 204 367q168 195 390 266l39 145l314 28l-38 -140q226 -28 301 -212l-270 -177q-44 145 -249 128q-154 -14 -268 -147q-91 -106 -128 -244q-36 -130 -9 -224q38 -124 173 -112q97 8 184 61t135 135l266 -43q-147 -256 -449 -353l-46 -176l-339 -29l46 169 q-185 38 -251 213q-55 154 -5 345z" />
<glyph unicode="&#xa4;" horiz-adv-x="1526" d="M311 302q92 109 189 225q-46 116 -7 260q45 165 178 304q-46 129 -79 250l359 113q17 -72 47 -174q33 5 62 9q83 6 152 -7q82 75 235 208l193 -106q-119 -99 -256 -225l17 -31l-68 -46q63 -102 24 -254q-31 -116 -125 -226q55 -112 133 -244l-353 -99q-31 65 -67 140 q-73 -27 -148 -32q-90 -9 -157 19q-61 -79 -130 -169zM710 626q29 -88 140 -78q102 8 186 94q72 75 94 165q29 104 -14 166l72 49q-45 81 -181 69q-113 -11 -198 -111q-68 -81 -96 -183q-27 -101 -3 -171z" />
<glyph unicode="&#xa5;" horiz-adv-x="1731" d="M278 12l51 189l343 35q26 99 47 165l-350 -34l63 237l281 29q-39 123 -75 312q-51 260 -61 444l408 68q12 -141 22 -283q20 -164 72 -264q223 372 433 570l377 -24q-297 -340 -604 -768l357 34l-63 -237l-453 -45q-22 -58 -53 -167l460 46l-50 -189l-454 -45 q-17 -71 -29 -129l-392 -14q10 53 22 104z" />
<glyph unicode="&#xa6;" horiz-adv-x="1038" d="M266 -208q65 346 157 713l413 63q-106 -396 -172 -740zM517 855q118 413 241 753l392 13q-116 -341 -235 -763z" />
<glyph unicode="&#xa8;" horiz-adv-x="1326" d="M664 1655q15 57 74 100.5t127 48.5q69 7 105.5 -29t21.5 -92q-14 -55 -73 -99.5t-127 -49.5q-67 -7 -104.5 29t-23.5 92zM1138 1684q14 62 79 109.5t138 53.5q75 6 117 -32t26 -100q-17 -61 -82.5 -110t-138.5 -54q-74 -6 -115 33t-24 100z" />
<glyph unicode="&#xa9;" horiz-adv-x="1773" d="M404 770q64 240 312 421t542 207q355 32 491 -202l-39 -20q92 -128 44 -311q-61 -225 -305 -401.5t-517 -200.5q-282 -24 -436.5 125.5t-91.5 381.5zM616 788q-43 -158 62 -262t300 -87q184 15 354 136t211 275q39 145 -51 237l39 21q-99 134 -326 114 q-203 -17 -373 -141t-216 -293zM799 802q32 116 128 213q111 108 247 120q178 17 231 -106l-137 -89q-22 74 -125 65q-76 -7 -133 -73q-46 -55 -65 -123q-17 -65 -5 -111q19 -63 87 -56q106 8 159 97l133 -22q-104 -178 -321 -196q-133 -12 -184 83q-44 84 -15 198z" />
<glyph unicode="&#xab;" horiz-adv-x="1729" d="M384 722l379 491l394 14l-379 -476l149 -435l-398 -34zM998 765l379 489l395 14l-379 -474l145 -437l-398 -34z" />
<glyph unicode="&#xad;" d="M416 589l94 239q435 41 734 82l-75 -229q-365 -60 -753 -92z" />
<glyph unicode="&#xae;" horiz-adv-x="1773" d="M404 770q64 240 312 421t542 207q355 32 491 -202l-39 -20q92 -128 44 -311q-61 -225 -305 -401.5t-517 -200.5q-282 -24 -436.5 125.5t-91.5 381.5zM616 788q-43 -158 62 -262t300 -87q184 15 354 136t211 275q39 145 -51 237l39 21q-99 134 -326 114 q-203 -17 -373 -141t-216 -293zM765 502q54 181 174 502l-53 -11l8 113q50 12 91 15q479 41 430 -141q-21 -77 -102 -146t-181 -107q114 -46 167 -171l-167 -44q-31 128 -154 179q-39 -109 -56 -176zM1012 802q73 9 142 41q77 39 90 96q17 63 -77 73q-24 3 -155 -3l60 -26z " />
<glyph unicode="&#xaf;" horiz-adv-x="1664" d="M625 1254l47 174l1062 94l-46 -175z" />
<glyph unicode="&#xb0;" horiz-adv-x="899" d="M529 1224q22 82 107.5 146t186.5 72q99 9 153.5 -42.5t33.5 -134.5q-22 -82 -108 -146t-185 -73q-101 -8 -155.5 43t-32.5 135zM672 1232q-10 -32 14 -54.5t65 -18.5q39 3 76 30.5t45 59.5q9 34 -14 56.5t-64 17.5q-41 -4 -77 -30.5t-45 -60.5z" />
<glyph unicode="&#xb1;" horiz-adv-x="1188" d="M227 29l92 239q435 41 736 82l-77 -229q-365 -60 -751 -92zM360 630l26 218l288 16l48 215l256 8l-48 -210l294 17l-24 -216l-318 -18l-44 -209l-256 -9l44 201z" />
<glyph unicode="&#xb4;" horiz-adv-x="806" d="M466 1555l590 215l-46 -176l-541 -99z" />
<glyph unicode="&#xb6;" horiz-adv-x="2195" d="M375 881q4 41 16 85q77 292 563 433q266 79 756 122q336 29 601 -45l-135 -288q-63 25 -108 36l-361 -1221h-314l370 1248q-39 -2 -85 -7q-133 -10 -232 -24l141 -59l-368 -1181l-362 -31l143 440q-300 -22 -471 113t-154 379zM737 928q-7 -34 4 -75q61 -211 358 -184 l164 519q-480 -94 -526 -260z" />
<glyph unicode="&#xb7;" horiz-adv-x="799" d="M439 882q17 62 85 110.5t145 55.5q77 5 120.5 -32.5t26.5 -99.5q-17 -63 -83.5 -110.5t-143.5 -54.5t-122 30.5t-28 100.5z" />
<glyph unicode="&#xbb;" horiz-adv-x="1727" d="M300 249l395 483l-135 430l406 33l126 -422l-394 -490zM922 316l392 483l-136 430l406 44l126 -435l-391 -488z" />
<glyph unicode="&#xbf;" horiz-adv-x="1519" d="M287 213q90 335 727 391l49 161l273 17q-34 -108 -117 -369q-280 -31 -349 -38q-85 -6 -153 -42q-87 -41 -104 -106q-38 -131 261 -106q237 21 367 53l-14 -218q-133 -29 -328 -46l-105 -11q-250 -20 -388 45q-172 78 -119 269zM1113 1002q15 56 67 94.5t120 45.5 q65 5 101 -26.5t22 -86.5q-15 -54 -69.5 -94.5t-121.5 -45.5q-68 -7 -100.5 24.5t-18.5 88.5z" />
<glyph unicode="&#xc0;" horiz-adv-x="1418" d="M17 -126q277 594 821 1570l524 19q-70 -646 -17 -1473l-401 -94l5 264q-159 21 -347 4q-37 -4 -85 -9l-113 -280zM638 425q43 5 79 8q128 11 246 2q-2 162 -4 328q4 189 24 331q-121 -224 -345 -669zM643 1562l46 175l502 -119l-36 -63z" />
<glyph unicode="&#xc1;" horiz-adv-x="1417" d="M2 -128q276 594 821 1570l524 19q-70 -645 -18 -1473l-401 -94l6 265q-159 20 -347 3q-37 -3 -85 -8l-113 -279zM623 423q43 5 78 9q128 10 246 1q-2 164 -3 328q5 191 24 331q-120 -223 -345 -669zM1055 1606l590 215l-46 -176l-543 -99z" />
<glyph unicode="&#xc2;" horiz-adv-x="1420" d="M10 -128q277 596 821 1572l524 17q-70 -645 -17 -1473l-401 -92l5 263q-159 20 -346 5q-38 -4 -86 -10l-112 -279zM631 423q43 5 79 9q128 12 246 3q-2 162 -4 326q5 191 24 331q-121 -222 -345 -669zM744 1553l314 208l227 24l202 -176l-248 -25l-96 65l-141 -81z" />
<glyph unicode="&#xc3;" horiz-adv-x="1449" d="M24 -126q276 594 821 1570l524 19q-70 -646 -17 -1473l-401 -94l5 264q-159 21 -347 4q-37 -2 -85 -9l-113 -278zM645 425q43 5 77 8q130 11 247 2q-1 164 -3 328q3 191 24 331q-121 -224 -345 -669zM672 1516l58 209q151 111 316 127q77 5 156.5 -37t152.5 -35 q155 14 294 111l-55 -210q-143 -97 -300 -111q-62 -7 -141.5 36t-148.5 36q-171 -16 -332 -126z" />
<glyph unicode="&#xc4;" horiz-adv-x="1437" d="M17 -126q277 594 821 1570l524 19q-70 -646 -17 -1473l-401 -94l5 264q-159 21 -347 4q-37 -4 -85 -9l-113 -280zM638 425q43 5 79 8q128 11 246 2q-2 162 -4 328q4 189 24 331q-121 -224 -345 -669zM736 1661q15 56 73 99.5t126 50.5q67 5 104.5 -30t22.5 -91 q-14 -57 -73 -100.5t-127 -50.5q-68 -5 -104 30t-22 92zM1208 1691q16 60 80 108t139 54q73 7 114 -31.5t27 -99.5q-17 -61 -81.5 -110t-139.5 -56q-74 -6 -115 34t-24 101z" />
<glyph unicode="&#xc5;" horiz-adv-x="1422" d="M10 -128q277 596 821 1572l524 17q-70 -645 -17 -1473l-401 -92l5 263q-159 20 -346 5q-38 -4 -86 -10l-112 -279zM631 423q43 5 79 9q128 12 246 3q-2 162 -4 326q5 191 24 331q-121 -222 -345 -669zM918 1713q21 82 106 146t186 72.5t154.5 -42.5t31.5 -135 q-20 -81 -105.5 -145t-186 -73t-154.5 42.5t-32 134.5zM1060 1722q-9 -34 14 -55.5t64 -17.5q40 3 76.5 30.5t45.5 59.5q8 34 -15 55.5t-62 17.5q-41 -3 -77 -29.5t-46 -60.5z" />
<glyph unicode="&#xc6;" horiz-adv-x="2193" d="M19 -126q368 602 1060 1590q522 19 1160 75q106 9 227 23l-113 -316q-186 -10 -361 -26q-147 -12 -302 -30q-19 -53 -36 -120q-24 -92 -43 -186q150 21 294 32q145 14 291 19l-81 -307q-122 -2 -265 -14q-169 -15 -341 -42q-5 -14 -11 -29q-5 -22 -10 -60.5t-12 -60.5 q-20 -77 -29 -151q169 21 333 36q166 14 331 22l-83 -307q-180 -10 -519 -39q-43 -3 -565 -70l41 251q-152 20 -342 3q-41 -3 -85 -8l-157 -284zM719 432q40 5 80 8q128 11 242 2q101 377 200 707q-72 -115 -263 -357q-181 -232 -259 -360z" />
<glyph unicode="&#xc8;" horiz-adv-x="1350" d="M195 -111q71 338 155 649q78 291 176 594l-159 -7l68 283q458 24 804 55q205 17 440 44l-97 -302q-186 -9 -362 -24q-147 -14 -302 -32q-17 -52 -36 -118q-25 -92 -41 -186q147 19 292 32q147 12 292 19l-82 -307q-143 -2 -292 -16q-145 -12 -293 -35q-33 -79 -53.5 -156 t-28.5 -152q169 23 334 36q166 16 328 22l-80 -307q-265 -12 -529 -36q-263 -22 -534 -56zM637 1562l46 175l503 -119l-37 -63z" />
<glyph unicode="&#xc9;" horiz-adv-x="1362" d="M177 -113q72 338 156 649q78 292 176 596l-159 -9l68 283q458 24 804 55q205 17 440 44l-97 -300q-186 -10 -362 -26q-147 -12 -302 -30q-17 -52 -36 -118q-25 -94 -41 -188q147 21 292 33q147 13 292 18l-82 -307q-143 -2 -292 -15q-145 -12 -293 -36 q-33 -79 -53.5 -155.5t-28.5 -151.5q169 22 334 36q166 15 328 22l-80 -307q-265 -12 -529 -36q-263 -23 -535 -57zM1046 1606l592 215l-46 -176l-542 -99z" />
<glyph unicode="&#xca;" horiz-adv-x="1357" d="M186 -113q72 340 155 651q79 290 176 594l-159 -7l69 283q457 22 804 53q204 19 440 46l-97 -302q-186 -9 -362 -24q-147 -14 -302 -32q-17 -52 -36 -118q-26 -94 -41 -188q147 21 292 33q146 13 292 18l-82 -307q-144 -2 -292 -14q-145 -13 -294 -37q-32 -77 -53 -155 q-20 -77 -29 -151q169 21 335 36q165 14 327 22l-80 -307q-264 -13 -529 -36q-263 -24 -534 -58zM737 1553l314 208l226 22l201 -175l-247 -26l-94 67l-144 -82z" />
<glyph unicode="&#xcb;" horiz-adv-x="1382" d="M193 -111q72 338 155 649q79 291 176 594l-159 -7l68 283q458 24 804 53q205 19 441 46l-98 -302q-186 -9 -361 -24q-147 -14 -303 -32q-17 -52 -35 -118q-26 -92 -41 -186q146 19 292 32q146 12 291 19l-82 -307q-143 -4 -291 -16q-145 -13 -294 -35q-32 -79 -52.5 -156 t-29.5 -152q169 23 335 36q165 16 327 22l-80 -307q-264 -12 -529 -36q-263 -22 -534 -56zM727 1661q15 56 74 99.5t127 48.5q67 7 104.5 -28t22.5 -91q-14 -57 -73 -100.5t-127 -50.5q-68 -5 -105 30t-23 92zM1200 1690q15 61 80 109t138 54q74 6 115.5 -32.5t28.5 -98.5 q-17 -61 -83 -110t-139.5 -55.5t-115 32.5t-24.5 101z" />
<glyph unicode="&#xcc;" horiz-adv-x="1036" d="M68 -131l58 271l215 29q46 246 110 488q61 225 153 490q-70 -4 -208 -17l84 281q90 9 216 21q331 29 666 20l-87 -281q-251 0 -505 -14l254 -77q-41 -133 -82 -281q-72 -268 -133 -589l210 8l-58 -271q-219 -5 -444 -26q-222 -18 -449 -52zM474 1548l47 174l501 -118 l-34 -63z" />
<glyph unicode="&#xcd;" horiz-adv-x="1009" d="M22 -135l58 270l215 29q46 246 111 488q60 227 152 491q-70 -5 -208 -18l83 281q91 11 219 21q329 29 664 20l-87 -281q-251 1 -505 -12l254 -79q-41 -131 -82 -280q-72 -269 -133 -590l210 8l-58 -269q-219 -7 -444 -26q-222 -20 -449 -53zM643 1570l591 215l-48 -176 l-541 -99z" />
<glyph unicode="&#xce;" horiz-adv-x="1010" d="M27 -135l58 272l215 29q46 245 111 486q60 227 152 491q-70 -3 -208 -17l84 282q90 9 218 20q329 29 664 21l-87 -282q-251 0 -505 -13l254 -77q-41 -133 -82 -282q-72 -268 -133 -588l210 6l-58 -269q-219 -5 -444 -26q-222 -19 -449 -53zM541 1536l314 208l224 22 l203 -175l-249 -26l-93 67l-143 -82z" />
<glyph unicode="&#xcf;" horiz-adv-x="1068" d="M53 -133l58 271l215 29q46 246 111 488q60 226 152 492q-70 -5 -208 -19l83 282q91 8 217 20q331 29 666 21l-87 -282q-251 0 -506 -14l255 -76q-41 -132 -82 -282q-72 -268 -133 -589l210 9l-59 -272q-218 -5 -443 -25q-222 -19 -449 -53zM551 1645q16 57 74 100.5 t126 48.5q68 7 105.5 -29t20.5 -91q-13 -56 -71 -99.5t-127 -50.5q-68 -5 -104.5 30t-23.5 91zM1026 1674q15 62 78 109.5t138 54.5q74 5 115.5 -33.5t26.5 -99.5q-17 -61 -82 -109t-138 -55q-75 -7 -115 32.5t-23 100.5z" />
<glyph unicode="&#xd1;" horiz-adv-x="1556" d="M137 -116q81 370 180 744q67 251 144 498l-63 108l406 206l382 -797q29 163 74 328q71 266 172 488l350 -97q-99 -290 -174 -565q-104 -387 -166 -777l-377 -56l-358 635q-33 -113 -50 -176q-65 -237 -123 -505zM732 1521l56 210q152 110 318 126q77 7 156 -36t153 -36 q155 14 292 111l-55 -210q-142 -97 -299 -111q-61 -7 -140.5 36t-149.5 36q-170 -15 -331 -126z" />
<glyph unicode="&#xd2;" horiz-adv-x="1565" d="M229 638q80 296 324 534q275 272 618 301q444 39 570 -265l-130 -85q123 -167 56 -415q-73 -278 -329 -501q-275 -243 -601 -270q-331 -29 -469 206q-116 205 -39 495zM591 372q51 -148 237 -131q167 13 307 158q119 123 159 272q41 150 -34 249l136 92q-67 155 -312 133 q-188 -17 -328 -184q-113 -133 -159 -304t-6 -285zM715 1568l48 176l502 -119l-36 -63z" />
<glyph unicode="&#xd3;" horiz-adv-x="1565" d="M213 637q81 295 325 534q274 271 617 300q444 39 570 -264l-129 -86q123 -167 56 -414q-73 -277 -329 -502q-275 -243 -601 -270q-331 -29 -469 207q-116 206 -40 495zM575 370q51 -148 237 -131q168 15 308 159q119 123 158 271q41 150 -34 251l138 90q-68 156 -314 133 q-187 -15 -327 -184q-113 -133 -159 -303.5t-7 -285.5zM1128 1613l591 215l-48 -176l-541 -99z" />
<glyph unicode="&#xd4;" horiz-adv-x="1567" d="M222 638q80 296 324 534q275 270 618 301q444 39 570 -266l-130 -86q123 -167 57 -414q-74 -277 -330 -502q-275 -241 -601 -270q-331 -29 -469 208q-116 205 -39 495zM584 372q51 -148 237 -133q167 15 307 160q120 123 159 270q41 152 -34 251l136 90q-66 156 -312 135 q-188 -17 -328 -186q-112 -133 -158 -302q-47 -171 -7 -285zM816 1560l314 208l225 22l201 -175l-247 -26l-94 66l-143 -81z" />
<glyph unicode="&#xd5;" horiz-adv-x="1584" d="M230 638q81 296 325 534q274 272 617 301q444 39 571 -265l-130 -85q123 -167 56 -415q-73 -278 -329 -501q-275 -243 -601 -270q-331 -29 -469 206q-116 207 -40 495zM592 372q51 -148 237 -131q168 13 308 158q119 123 158 272q41 150 -34 249l137 92q-67 155 -313 133 q-187 -17 -327 -184q-113 -133 -159 -304t-7 -285zM741 1521l56 211q152 111 317 125q76 7 156 -35t153 -35q156 14 292 111l-54 -210q-142 -99 -299 -113q-62 -5 -141 37t-149 35q-171 -14 -331 -126z" />
<glyph unicode="&#xd6;" horiz-adv-x="1580" d="M229 638q80 296 324 534q275 272 618 301q444 39 570 -265l-130 -85q123 -167 56 -415q-73 -278 -329 -501q-275 -243 -601 -270q-331 -29 -469 206q-116 205 -39 495zM591 372q51 -148 237 -131q167 13 307 158q119 123 159 272q41 150 -34 249l136 92q-67 155 -312 133 q-188 -17 -328 -184q-113 -133 -159 -304t-6 -285zM809 1667.5q15 56.5 73 100t125 50.5q68 5 105.5 -30t22.5 -92q-14 -56 -72.5 -99.5t-127.5 -50.5q-68 -5 -104.5 30t-21.5 91.5zM1282 1696q15 62 79 109.5t137 54.5q74 5 115.5 -32.5t26.5 -98.5q-15 -62 -81 -110.5 t-139 -55.5q-75 -7 -115 32.5t-23 100.5z" />
<glyph unicode="&#xd7;" horiz-adv-x="1258" d="M328 531l295 213l-188 142l234 160l186 -140l259 183l178 -116l-282 -200l181 -162l-234 -159l-177 157l-278 -196z" />
<glyph unicode="&#xd8;" horiz-adv-x="1703" d="M106 147l172 136q-39 169 12 360q80 296 324 535q275 271 618 300q285 26 442 -94l149 118l111 -217l-243 -184q101 -154 36 -388q-73 -278 -328 -501q-274 -243 -600 -270q-292 -26 -432 155l-147 -111zM640 568l708 557q-82 36 -203 25q-188 -17 -328 -184 q-112 -133 -158 -304q-14 -49 -19 -94zM674 329q62 -97 213 -83q169 15 309 158q120 123 159 272q26 101 5 174z" />
<glyph unicode="&#xd9;" horiz-adv-x="1533" d="M230 596l219 814l368 17l-218 -813q-39 -145 5 -254q51 -135 213 -121q159 14 274 140q93 102 131 242l222 831l389 17l-217 -809q-70 -261 -312 -472q-258 -226 -568 -253q-318 -27 -456 193q-121 195 -50 468zM703 1567l46 176l502 -120l-36 -61z" />
<glyph unicode="&#xda;" horiz-adv-x="1534" d="M213 594l219 814l368 17l-218 -812q-39 -145 5 -255q51 -134 213 -121q159 16 273 140q94 103 132 243l222 831l389 17l-217 -809q-70 -261 -312 -473q-258 -225 -568 -251q-318 -29 -456 191q-121 195 -50 468zM1113 1611l590 215l-48 -176l-541 -99z" />
<glyph unicode="&#xdb;" horiz-adv-x="1538" d="M224 596l218 814l369 17l-219 -813q-39 -146 5 -256q52 -133 214 -119q158 14 273 138q94 103 131 243l222 832l389 17l-217 -809q-70 -261 -312 -472q-258 -226 -568 -253q-318 -27 -456 191q-121 195 -49 470zM804 1560l314 206l227 24l201 -175l-247 -26l-96 65 l-141 -80z" />
<glyph unicode="&#xdc;" horiz-adv-x="1550" d="M229 596l218 814l369 17l-219 -813q-39 -145 5 -254q52 -135 214 -121q159 14 273 138q94 103 131 244l222 831l389 17l-216 -809q-70 -261 -313 -472q-258 -226 -568 -253q-318 -27 -456 193q-121 195 -49 468zM794 1666q15 56 73 99.5t126 50.5q67 5 104.5 -30 t22.5 -91q-14 -57 -73 -100.5t-127 -49.5t-104 29t-22 92zM1266 1695q16 61 80 109t137 54.5t115 -31.5t27 -100q-16 -61 -81.5 -110t-139 -55.5t-114.5 32.5t-24 101z" />
<glyph unicode="&#xdd;" horiz-adv-x="1381" d="M391 1372l404 68q12 -141 26 -283q17 -165 68 -264q225 372 434 570l377 -24q-268 -309 -618 -787q-48 -67 -128 -198q-32 -65 -63 -179q-46 -174 -79 -336l-392 -14q36 181 78 340q41 151 70 235q-65 149 -117 428q-50 263 -60 444zM1039 1606l593 213l-47 -174 l-542 -99z" />
<glyph unicode="&#xde;" horiz-adv-x="1707" d="M295 -102l345 1044q-63 -7 -135 -26l19 279q106 24 210 34l70 211l305 -128l-20 -59q845 27 737 -374q-12 -43 -31 -80q-133 -272 -440 -444q-275 -154 -625 -196l-73 -231zM821 437q179 17 345 101q196 97 232 235q34 130 -121 172q-113 31 -299 14q-62 -5 -145 -7 l107 -152z" />
<glyph unicode="&#xdf;" horiz-adv-x="1860" d="M217 -56l128 268q41 -5 85 -5q96 274 311 943q-77 -12 -137 -27l22 282q106 23 222 34q62 5 186.5 18.5t187.5 20.5q826 72 725 -304q-58 -217 -387 -404q259 -113 201 -335q-56 -206 -322 -343q-226 -114 -495 -138q-140 -12 -256 -17l-75 -225l-326 34l59 191 q-73 3 -129 7zM778 218q150 0 191 4q120 10 239 56q154 60 176 144q29 110 -111 157q-107 34 -261 20q-20 -2 -125 -14zM887 1171l180 -75l-101 -277h5q495 45 551 249q45 164 -430 122l-97 -9q-20 -2 -108 -10z" />
<glyph unicode="&#xe0;" horiz-adv-x="1167" d="M116 181q224 479 659 1258l418 13q-56 -512 -14 -1177l-321 -29l4 165q-125 17 -273 4q-31 -4 -70 -9l-86 -196zM529 1551l46 176l504 -118l-38 -63zM616 623q34 5 62 7q100 8 194 1q0 130 -2 260q4 153 21 266q-97 -177 -275 -534z" />
<glyph unicode="&#xe1;" horiz-adv-x="1171" d="M80 179q224 478 659 1256l420 14q-56 -512 -16 -1178l-320 -27l3 164q-125 17 -273 3q-31 -1 -70 -7l-85 -197zM580 620q34 5 62 6q100 9 194 2q0 130 -1 261q3 152 20 265q-97 -178 -275 -534zM922 1596l590 213l-46 -176l-541 -97z" />
<glyph unicode="&#xe2;" horiz-adv-x="1155" d="M92 179q224 480 659 1258l420 14q-57 -512 -16 -1178l-320 -29l3 166q-125 15 -273 3q-31 -3 -70 -9l-85 -197zM592 621q34 4 62 7q100 9 194 2q0 129 -1 259q3 154 20 266q-97 -179 -275 -534zM614 1543l314 206l224 24l201 -176l-247 -25l-92 65l-145 -81z" />
<glyph unicode="&#xe3;" horiz-adv-x="1224" d="M125 183q223 477 658 1256l418 15q-56 -512 -13 -1179l-321 -28l3 164q-124 17 -273 4q-30 -2 -70 -7l-85 -198zM561 1505l59 210q148 111 315 126q77 7 157 -34.5t150 -36.5q157 13 294 112l-55 -211q-141 -97 -298 -111q-62 -5 -141 36.5t-148 35.5q-174 -16 -333 -127 zM625 623q34 5 61 7q101 10 195 1q0 132 -2 262q3 151 20 266q-97 -179 -274 -536z" />
<glyph unicode="&#xe4;" horiz-adv-x="1212" d="M119 183q224 477 659 1256l418 13q-56 -512 -13 -1177l-321 -28l3 164q-124 17 -273 4q-31 -2 -70 -7l-85 -198zM620 623q34 5 61 7q101 8 195 1q0 130 -2 262q3 151 20 264q-97 -177 -274 -534zM625 1652q15 56 74 99.5t127 49.5t105 -29.5t21 -92.5q-13 -54 -72 -98.5 t-126 -49.5q-68 -7 -105.5 29t-23.5 92zM1099 1681q15 62 79 109.5t138 52.5q75 7 117 -31.5t26 -99.5q-17 -62 -82 -110.5t-140 -53.5q-73 -7 -114 32.5t-24 100.5z" />
<glyph unicode="&#xe5;" horiz-adv-x="1164" d="M96 179q223 480 658 1258l420 14q-56 -512 -15 -1178l-321 -29l3 166q-124 17 -273 3q-30 -3 -70 -9l-85 -196zM596 621q34 5 61 7q101 9 195 2q0 129 -2 259q3 154 20 266q-97 -177 -274 -534zM788.5 1701.5q22.5 81.5 108.5 145.5t183 73q101 10 156.5 -42t33.5 -134 q-22 -83 -108.5 -147t-186.5 -73q-98 -8 -153.5 44t-33 133.5zM932 1710q-10 -32 13.5 -54.5t64.5 -19t77 31t45 61.5q10 32 -14 54.5t-65 19t-77 -31t-44 -61.5z" />
<glyph unicode="&#xe6;" horiz-adv-x="1744" d="M108 212q281 460 829 1240q413 16 904 58q115 11 175 17l-87 -247q-140 -7 -289 -19q-123 -12 -227 -24q-20 -49 -29 -87q-17 -59 -32 -150q112 15 230 25.5t225 15.5l-63 -241q-97 -1 -199 -10q-128 -12 -275 -34q-5 -14 -9 -24q-3 -15 -7.5 -46.5t-9.5 -47.5 q-13 -56 -20 -116q128 16 259 28q133 11 258 17l-67 -250q-222 -10 -404 -27q-133 -10 -439 -49l34 196q-124 17 -269 3q-28 -1 -65 -7l-127 -226zM654 647q35 5 61 7q97 8 191 1q89 330 156 550q-62 -96 -204.5 -280t-203.5 -278z" />
<glyph unicode="&#xe8;" horiz-adv-x="1104" d="M247 193q55 261 127 526q65 242 138 469l-125 -7l53 229q364 17 649 42q169 14 345 36l-79 -242q-138 -7 -292 -21q-129 -12 -237 -24q-15 -49 -31 -104q-18 -68 -30 -140q111 16 233 26q125 12 234 15l-66 -245q-120 -2 -232 -12q-113 -9 -236 -29q-29 -63 -44 -123 q-17 -60 -21 -123q125 17 266 29q139 12 263 19l-65 -246q-220 -12 -423 -29q-201 -17 -427 -46zM519 1551l46 176l502 -119l-36 -63z" />
<glyph unicode="&#xe9;" horiz-adv-x="1137" d="M224 191q56 261 126 524q65 242 140 471l-126 -7l52 227q364 19 649 45q169 13 345 34l-79 -241q-138 -7 -292 -20q-129 -12 -235 -24q-17 -50 -33 -104q-18 -69 -30 -140q111 15 234 25q124 11 233 16l-66 -246q-120 -2 -232 -12q-111 -10 -236 -29q-29 -65 -44 -123 q-17 -60 -21 -123q125 17 267 29q138 12 262 17l-65 -245q-220 -11 -423 -28q-201 -19 -426 -46zM923 1596l589 213l-46 -176l-541 -97z" />
<glyph unicode="&#xea;" horiz-adv-x="1116" d="M236 191q54 263 126 526q65 242 140 469l-127 -5l53 227q364 19 649 43q169 15 345 36l-79 -243q-138 -7 -292 -20q-129 -11 -235 -24q-17 -50 -33 -104q-18 -69 -30 -139q111 14 233 26q125 10 234 15l-66 -245q-120 -4 -232 -12q-111 -11 -236 -29q-29 -65 -44 -125 q-17 -60 -21 -121q125 15 266 27q139 14 263 19l-65 -246q-220 -10 -423 -29q-201 -17 -426 -46zM614 1543l314 206l226 24l201 -176l-247 -25l-94 65l-144 -81z" />
<glyph unicode="&#xeb;" horiz-adv-x="1149" d="M246 193q54 261 126 526q65 240 140 469l-126 -7l53 229q363 17 648 42q169 14 345 35l-79 -241q-138 -7 -291 -21q-130 -12 -238 -24q-15 -49 -30 -104q-19 -68 -31 -140q111 16 234 26q124 10 234 15l-67 -245q-120 -2 -232 -12q-113 -9 -236 -29q-29 -63 -44 -123 q-17 -60 -21 -123q125 17 267 29q138 12 263 17l-65 -244q-220 -12 -424 -29q-201 -17 -426 -46zM609 1650q16 57 74 100.5t126 48.5q68 7 105.5 -29t20.5 -91q-13 -56 -72 -99.5t-126 -50.5q-68 -5 -104.5 30t-23.5 91zM1084 1679q15 62 78 109.5t138 54.5q76 5 116.5 -33 t25.5 -100q-17 -61 -81 -109t-139 -55t-115 32.5t-23 100.5z" />
<glyph unicode="&#xec;" horiz-adv-x="630" d="M218 191q58 319 137 611q80 306 195 616l314 10q-120 -346 -198 -640q-77 -283 -130 -570zM459 1546l46 176l502 -119l-34 -64z" />
<glyph unicode="&#xed;" horiz-adv-x="633" d="M210 189q58 321 136 611q81 306 195 618l314 10q-119 -346 -198 -641q-75 -282 -130 -570zM454 1555l589 213l-46 -176l-541 -97z" />
<glyph unicode="&#xee;" horiz-adv-x="799" d="M299 198q58 319 138 611q80 305 193 616l315 10q-119 -344 -197 -640q-77 -283 -132 -570zM433 1527l315 207l225 24l203 -176l-248 -26l-95 65l-142 -80z" />
<glyph unicode="&#xef;" horiz-adv-x="935" d="M364 203q58 321 138 611q80 306 193 618l315 10q-119 -346 -198 -642q-76 -281 -129 -570zM485 1638q17 57 74 100.5t125 50.5q69 5 106.5 -30t21.5 -92q-15 -56 -73 -99.5t-126 -48.5q-69 -7 -105.5 29t-22.5 90zM959 1669q16 62 79 108.5t138 53.5t116 -31.5t26 -99.5 q-18 -62 -82 -110.5t-139 -55.5q-75 -5 -115 34.5t-23 100.5z" />
<glyph unicode="&#xf1;" horiz-adv-x="1287" d="M203 189q62 289 145 596q56 212 115 398l-52 87l326 165l306 -638q25 135 60 266q58 210 136 386l280 -77q-82 -239 -138 -452q-82 -306 -132 -623l-304 -43l-285 507q-30 -101 -40 -141q-48 -181 -99 -403zM597 1509l58 210q149 111 316 126q77 7 156.5 -35t150.5 -37 q156 14 294 111l-55 -210q-141 -97 -298 -111q-64 -7 -142.5 36t-148.5 36q-172 -15 -331 -126z" />
<glyph unicode="&#xf2;" horiz-adv-x="1278" d="M276 794q65 237 262 426q218 217 493 241q355 31 457 -212l-104 -70q97 -131 44 -331q-61 -223 -264 -403q-220 -191 -481 -215q-267 -22 -372 168q-94 165 -35 396zM567 579q39 -118 187 -105q135 12 246 125q97 102 130 218q32 122 -29 202l109 72q-53 124 -249 107 q-149 -14 -261 -148q-92 -106 -128 -243q-38 -136 -5 -228zM575 1556l46 176l504 -119l-38 -63z" />
<glyph unicode="&#xf3;" horiz-adv-x="1278" d="M253 792q64 237 261 427q218 216 493 240q355 31 457 -211l-104 -70q97 -132 45 -331q-62 -224 -265 -403q-220 -191 -481 -215q-266 -22 -372 167q-94 165 -34 396zM543 577q39 -118 189 -106q133 12 244 126q97 101 130 219q32 121 -27 199l107 74q-53 124 -249 107 q-149 -13 -261 -148q-92 -106 -128 -242q-38 -137 -5 -229zM978 1601l592 213l-46 -176l-541 -97z" />
<glyph unicode="&#xf4;" horiz-adv-x="1278" d="M265 792q64 237 261 428q218 215 493 239q355 31 457 -211l-104 -69q97 -133 45 -332q-62 -222 -265 -402q-220 -192 -481 -215q-267 -23 -372 166q-94 167 -34 396zM555 579q39 -120 189 -106q133 12 244 126q97 101 130 218q32 122 -29 200l109 74q-53 122 -249 105 q-149 -12 -261 -148q-92 -104 -128 -242q-38 -137 -5 -227zM672 1548l316 206l224 24l201 -175l-247 -26l-93 65l-145 -80z" />
<glyph unicode="&#xf5;" horiz-adv-x="1306" d="M278 794q65 237 261 426q219 217 494 241q355 31 457 -212l-104 -70q97 -131 44 -331q-61 -223 -264 -401q-221 -193 -482 -217q-266 -22 -372 168q-94 165 -34 396zM568 579q40 -118 188 -105q135 12 246 125q97 102 130 220q32 121 -29 200l109 72q-53 124 -249 107 q-149 -14 -262 -148q-92 -106 -128 -243q-37 -136 -5 -228zM601 1509l58 210q148 111 316 126q76 7 155.5 -35t151.5 -37q157 14 293 113l-54 -212q-142 -97 -299 -111q-61 -5 -140.5 37t-147.5 35q-175 -15 -333 -126z" />
<glyph unicode="&#xf6;" horiz-adv-x="1299" d="M275 794q65 237 261 426q218 217 493 241q355 31 458 -212l-105 -70q98 -131 45 -331q-62 -223 -265 -403q-220 -191 -481 -215q-266 -22 -372 168q-94 165 -34 396zM565 579q39 -118 188 -105q134 11 245 125q98 101 130 218q33 122 -29 200l109 74q-53 124 -249 107 q-148 -14 -261 -148q-92 -106 -128 -243q-38 -136 -5 -228zM666 1655q15 57 74 100.5t127 48.5q68 7 105 -29t21 -92q-13 -55 -72 -99.5t-127 -49.5q-67 -7 -104.5 29t-23.5 92zM1140 1684q14 62 78.5 109.5t138.5 53.5q75 6 117 -32t26 -100q-17 -61 -82.5 -109t-139 -54.5 t-114.5 32.5t-24 100z" />
<glyph unicode="&#xf7;" horiz-adv-x="978" d="M244 573l94 239q125 16 266 29l193 17q145 12 271 18l-76 -227q-427 -38 -748 -76zM445.5 420q15.5 58 76 102.5t130.5 50.5q72 6 110 -30t23 -94t-75.5 -101.5t-132.5 -50.5q-70 -5 -108.5 30t-23 93zM572 1027q15 58 79 103.5t135.5 52.5t113.5 -29t27 -94 q-16 -58 -80 -103.5t-135 -51.5q-72 -6 -114 30t-26 92z" />
<glyph unicode="&#xf8;" horiz-adv-x="1391" d="M174 399l138 110q-30 136 9 288q65 237 259 427q220 216 495 240q229 21 353 -75l122 94l87 -174l-195 -147q80 -121 31 -310q-62 -224 -265 -401q-220 -193 -481 -215q-232 -21 -345 122l-116 -87zM602 736l564 445q-62 29 -161 20q-148 -13 -263 -148 q-90 -106 -126 -242q-8 -33 -14 -75zM628 544q48 -76 171 -66q133 12 245 126q98 101 130 219q21 82 4 140z" />
<glyph unicode="&#xf9;" horiz-adv-x="1254" d="M280 759l174 651l295 13l-174 -650q-31 -116 2 -203q44 -107 172 -97q125 12 214 111q70 80 107 194l196 668l296 11l-174 -646q-57 -210 -251 -379q-207 -179 -454 -202q-255 -22 -364 154q-97 157 -39 375zM567 1555l46 176l501 -118l-35 -63z" />
<glyph unicode="&#xfa;" horiz-adv-x="1256" d="M254 758l174 650l296 14l-174 -651q-31 -116 1 -204q45 -108 173 -96q124 10 213 111q70 80 107 195l197 667l295 12l-174 -649q-56 -208 -249 -377q-208 -179 -456 -201q-254 -22 -363 153q-98 156 -40 376zM968 1599l590 215l-46 -176l-541 -99z" />
<glyph unicode="&#xfb;" horiz-adv-x="1258" d="M268 758l174 652l295 13l-174 -652q-31 -114 2 -203q44 -107 172 -95q125 10 214 111q70 80 107 194l196 666l296 12l-174 -647q-57 -208 -250 -379q-208 -179 -455 -200q-255 -22 -364 154q-97 155 -39 374zM664 1546l316 208l223 23l202 -176l-248 -24l-92 65l-145 -82 z" />
<glyph unicode="&#xfc;" horiz-adv-x="1278" d="M278 759l174 651l296 13l-175 -650q-30 -116 2 -203q45 -107 173 -97q124 12 213 111q70 80 107 194l197 668l295 11l-174 -646q-57 -210 -251 -379q-207 -179 -454 -202q-254 -22 -364 154q-97 155 -39 375zM657 1654q15 56 73 99.5t127 50.5q68 5 105.5 -30t22.5 -91 q-14 -57 -73.5 -100.5t-128.5 -49.5q-66 -6 -103 29t-23 92zM1132 1683q13 61 77 109t139 54.5t116 -31.5t26 -100q-17 -61 -81 -110t-139 -55.5t-115.5 32.5t-22.5 101z" />
<glyph unicode="&#xfd;" horiz-adv-x="1123" d="M393 1379l324 55q8 -118 17 -236q15 -138 54 -220q197 326 350 473l302 -19q-203 -236 -493 -630q-37 -51 -104 -159q-24 -46 -49 -141q-41 -154 -67 -284l-316 -11q33 150 65 274q26 101 53 183q-39 97 -89 360q-41 224 -47 355zM910 1594l588 215l-46 -176l-541 -99z " />
<glyph unicode="&#xfe;" horiz-adv-x="1413" d="M341 201q26 75 280 814q-56 -6 -116 -22l16 224q88 20 179 29l61 191l246 -104l-26 -70q666 19 581 -299q-9 -36 -24 -63q-106 -217 -352 -355q-223 -126 -500 -159l-55 -160zM756 609q145 14 277 80q155 79 186 190q49 183 -337 148q-53 -3 -105 -5l88 -95z" />
<glyph unicode="&#xff;" horiz-adv-x="1142" d="M411 1381l325 54q8 -117 17 -235q15 -138 54 -220q197 326 350 472l302 -18q-203 -236 -493 -630q-38 -51 -104 -159q-24 -46 -50 -142q-41 -153 -68 -283l-314 -12q33 150 65 275q26 101 53 181q-39 99 -89 362q-41 223 -48 355zM592 1649q16 56 74 99.5t126 48.5 q68 7 105.5 -28t20.5 -91q-13 -57 -72 -100.5t-126 -50.5q-68 -5 -104.5 30t-23.5 92zM1067 1678q15 61 78 109t138 54q76 6 116.5 -32.5t25.5 -98.5q-17 -61 -81 -110t-139 -55.5t-115 32.5t-23 101z" />
<glyph unicode="&#x152;" horiz-adv-x="3019" d="M410 654q80 295 324 534q275 271 618 300q300 28 460 -109l36 154q456 22 804 52q203 18 440 47l-97 -303q-186 -10 -362 -25q-146 -12 -302 -31q-18 -53 -36 -118q-25 -93 -40 -187q146 20 291 32q144 14 292 19l-82 -307q-143 -2 -292 -16q-145 -12 -293 -36 q-33 -76 -53 -155q-21 -77 -29 -152q169 22 333 38q164 13 329 20l-80 -305q-265 -14 -529 -36q-263 -24 -534 -58q47 227 94 413q-137 -195 -338 -319q-215 -133 -446 -154q-333 -29 -469 207q-118 206 -39 495zM771 387q52 -146 236 -131q169 15 309 159q119 123 157 271 q43 150 -34 251l138 90q-67 156 -312 134q-188 -16 -330 -185q-111 -133 -158 -304q-45 -169 -6 -285zM1792 1138q51 -70 68 -136q45 155 79 254l-33 -2q9 -15 16 -30z" />
<glyph unicode="&#x153;" horiz-adv-x="2522" d="M451 809q64 237 259 427q220 216 495 240q242 21 370 -87l26 121q365 19 643 43q176 15 354 36l-81 -241q-182 -10 -286 -19q-91 -8 -241 -25q-19 -50 -29 -94q-22 -80 -36 -150q113 13 234 25q125 11 234 16l-65 -246q-120 -2 -232.5 -12t-235.5 -29q-24 -55 -41 -125 q-20 -69 -25 -121q126 16 266 29q142 12 264 17l-66 -245q-220 -11 -422 -28q-201 -18 -428 -46q36 162 77 330q-109 -156 -272 -255q-172 -107 -358 -124q-264 -22 -370 167q-96 166 -34 396zM739 594q41 -118 189 -104q135 10 246 124q96 101 128 219q33 121 -27 200 l109 73q-53 125 -247 107q-151 -13 -263 -148q-92 -106 -128 -242q-38 -137 -7 -229zM1556 1195q38 -52 55 -110q34 115 63 204h-24q4 -9 11 -24z" />
<glyph unicode="&#x178;" horiz-adv-x="1527" d="M476 1379l405 68q12 -140 25 -281q17 -168 69 -265q225 370 433 568l377 -23q-269 -309 -618 -787q-47 -65 -128 -198q-32 -65 -63 -179q-46 -173 -78 -335l-393 -14q34 181 77 338q43 154 72 236q-65 150 -120 428q-48 265 -58 444zM790 1666q16 56 74.5 99.5 t127.5 50.5q66 5 103.5 -30t22.5 -91q-14 -57 -73 -100.5t-127 -49.5t-104.5 29t-23.5 92zM1263 1695q15 61 80 109t137 55q75 6 116.5 -32t26.5 -100q-15 -61 -81 -110t-141 -55q-72 -7 -113.5 32t-24.5 101z" />
<glyph unicode="&#x2c6;" horiz-adv-x="1053" d="M551 1538l314 206l226 24l203 -176l-250 -25l-93 65l-142 -81z" />
<glyph unicode="&#x2dc;" horiz-adv-x="1446" d="M669 1516l58 209q150 111 316 125q77 7 156 -35t153 -35q155 14 293 111l-54 -210q-144 -99 -301 -113q-61 -5 -140.5 37t-149.5 37q-171 -16 -331 -126z" />
<glyph unicode="&#x2000;" horiz-adv-x="966" />
<glyph unicode="&#x2001;" horiz-adv-x="1932" />
<glyph unicode="&#x2002;" horiz-adv-x="966" />
<glyph unicode="&#x2003;" horiz-adv-x="1932" />
<glyph unicode="&#x2004;" horiz-adv-x="644" />
<glyph unicode="&#x2005;" horiz-adv-x="483" />
<glyph unicode="&#x2006;" horiz-adv-x="322" />
<glyph unicode="&#x2007;" horiz-adv-x="322" />
<glyph unicode="&#x2008;" horiz-adv-x="241" />
<glyph unicode="&#x2009;" horiz-adv-x="386" />
<glyph unicode="&#x200a;" horiz-adv-x="107" />
<glyph unicode="&#x2010;" d="M416 589l94 239q435 41 734 82l-75 -229q-363 -58 -753 -92z" />
<glyph unicode="&#x2011;" d="M416 589l94 239q435 41 734 82l-75 -229q-363 -58 -753 -92z" />
<glyph unicode="&#x2012;" d="M416 589l94 239q435 41 734 82l-75 -229q-363 -58 -753 -92z" />
<glyph unicode="&#x2013;" horiz-adv-x="1149" d="M418 589l94 239q188 17 567 58l-74 -227q-251 -41 -490 -62z" />
<glyph unicode="&#x2014;" horiz-adv-x="1485" d="M398 587l94 239q375 36 952 113l-75 -229q-524 -84 -971 -123z" />
<glyph unicode="&#x2018;" horiz-adv-x="759" d="M430 1067l46 203l353 157l-22 -72l-83 -72l70 -5l-53 -194z" />
<glyph unicode="&#x2019;" horiz-adv-x="749" d="M575 1070l19 70l85 72l-73 5l56 194l307 17l-46 -203z" />
<glyph unicode="&#x201a;" horiz-adv-x="749" d="M307 73l19 70l85 72l-71 5l54 195l311 17l-48 -203z" />
<glyph unicode="&#x201c;" horiz-adv-x="1219" d="M502 1091l48 203l351 155l-20 -70l-84 -72l70 -5l-55 -194zM903 1109l46 202l351 157l-20 -72l-85 -72l71 -3l-53 -196z" />
<glyph unicode="&#x201d;" horiz-adv-x="1213" d="M563 1085l21 70l85 74l-73 3l56 195l307 17l-44 -203zM964 1104l19 70l85 72l-73 5l56 195l308 17l-45 -203z" />
<glyph unicode="&#x201e;" horiz-adv-x="1213" d="M343 265l21 70l83 73l-72 3l57 195l309 17l-48 -203zM742 283l23 70l83 72l-71 5l52 195l311 17l-46 -203z" />
<glyph unicode="&#x2022;" horiz-adv-x="1562" d="M486 770q45 167 220 301t379 151q205 19 314.5 -90.5t64.5 -276.5q-46 -169 -219 -301t-378 -151q-203 -17 -315 90.5t-66 276.5z" />
<glyph unicode="&#x2026;" horiz-adv-x="1715" d="M278 341q17 62 85.5 109.5t145 54.5t120 -31.5t26.5 -99.5q-15 -63 -82.5 -111t-144 -55t-122 31.5t-28.5 101.5zM739 358q17 62 86 109.5t146 54.5q75 7 118.5 -31.5t28.5 -99.5q-17 -63 -84.5 -111t-144.5 -55q-75 -7 -120 31.5t-30 101.5zM1225 468q17 61 85.5 109 t145.5 54.5t120.5 -32t26.5 -99.5q-18 -63 -84.5 -111t-143 -54.5t-122 31.5t-28.5 102z" />
<glyph unicode="&#x202f;" horiz-adv-x="386" />
<glyph unicode="&#x2039;" horiz-adv-x="1022" d="M314 717l379 490l394 13l-377 -474l147 -437l-398 -34z" />
<glyph unicode="&#x203a;" horiz-adv-x="1027" d="M292 261l394 483l-136 430l399 34l133 -425l-393 -488z" />
<glyph unicode="&#x205f;" horiz-adv-x="483" />
<glyph unicode="&#x20ac;" horiz-adv-x="2002" d="M189 299l111 225l258 27q9 62 26 132q-91 -7 -195 -12l87 222q137 8 202 15q129 234 332 391q234 181 500 203q441 39 560 -265l-358 -155q-82 111 -273 94q-212 -19 -364 -227q220 26 333 43l-72 -210q-126 -29 -375 -58q-9 -28 -14 -45q-10 -42 -19 -90q175 19 304 34 l-77 -222l-213 -22q44 -125 203 -111q138 12 257 97.5t166 199.5l332 -55q-108 -220 -336 -371t-496 -175q-223 -19 -360 94q-119 99 -148 282q-237 -24 -371 -41z" />
<glyph unicode="&#x2122;" horiz-adv-x="1642" d="M551 1299l40 123l486 22l-14 -45l96 50l131 -314l285 352l159 -31q-38 -45 -51 -77q-4 -10 -17 -56q-16 -60 -63 -220q-41 -139 -64 -219l-158 -15q8 37 17 71q19 74 59 195l-221 -246l-116 225q-7 -22 -17 -61q-16 -43 -21 -63q-19 -75 -34 -150l-159 -14q34 164 72 299 q19 71 58 196l-149 -7q-29 -97 -42 -143l-51 -195q-12 -44 -35 -140l-158 -13q24 119 63 264q29 104 63 219z" />
<glyph unicode="&#x25fc;" horiz-adv-x="1475" d="M0 0v1475h1475v-1475h-1475z" />
</font>
</defs>
</svg>
